# xmcd CD database file
#
# Track frame offsets:
#	150
#	25234
#	46044
#	73125
#	97845
#	100998
#	127982
#	161146
#	188812
#	216120
#	244954
#	259929
#	279847
#
# Disc length: 3852 seconds
#
# Revision: 0
# Processed by: cddbd v1.5.2PL0 Copyright (c) Steve Scherf et al.
# Submitted via: CDex 1.99.1
#
DISCID=b30f0a0d
DTITLE=Moments In Life - Shinji Akita
DYEAR=2006
DGENRE=Jazz
TTITLE0=Spread To The Sky
TTITLE1=Summer Time
TTITLE2=Blue On You
TTITLE3=Love For Sale
TTITLE4=> My Wish Your Wish
TTITLE5=I`ve Waited For You
TTITLE6=Division Of The View
TTITLE7=Introduction
TTITLE8=Just Like It
TTITLE9=Road To The Lord
TTITLE10=Fahrenheit
TTITLE11=Wtc
TTITLE12=Solitaire
EXTD=YEAR: 2006
EXTT0=
EXTT1=
EXTT2=
EXTT3=
EXTT4=
EXTT5=
EXTT6=
EXTT7=
EXTT8=
EXTT9=
EXTT10=
EXTT11=
EXTT12=
PLAYORDER=
